<svg width="32" height="32" viewBox="0 0 32 32" fill="none" xmlns="http://www.w3.org/2000/svg">
<path d="M30.375 14.4002H4.95706L17.3704 2.75876C18.0204 2.14916 18.0456 1.13638 17.4265 0.496384C16.8082 -0.142808 15.7796 -0.168408 15.1288 0.441185L0.95225 13.737C0.338812 14.3418 0 15.145 0 16.0002C0 16.8546 0.338812 17.6586 0.980687 18.2898L15.1296 31.5584C15.444 31.8536 15.847 32 16.25 32C16.679 32 17.108 31.8336 17.4273 31.5032C18.0464 30.8632 18.0212 29.8512 17.3713 29.2416L4.90588 17.6002H30.375C31.272 17.6002 32 16.8834 32 16.0002C32 15.117 31.272 14.4002 30.375 14.4002Z" fill="#E6D5B8"/>
</svg>
